<svg xmlns="http://www.w3.org/2000/svg" xmlns:xlink="http://www.w3.org/1999/xlink" width="47.146" height="48.471" viewBox="0 0 47.146 48.471">
  <defs>
    <radialGradient id="radial-gradient" cx="0.509" cy="307.649" r="231.348" gradientUnits="objectBoundingBox">
      <stop offset="0" stop-color="#fcd662"/>
      <stop offset="0.088" stop-color="#e6ce63"/>
      <stop offset="0.338" stop-color="#adba67"/>
      <stop offset="0.523" stop-color="#89ae6a"/>
      <stop offset="0.622" stop-color="#7caa6b"/>
      <stop offset="0.753" stop-color="#608a65"/>
      <stop offset="0.835" stop-color="#547b63"/>
      <stop offset="0.945" stop-color="#386f65"/>
      <stop offset="1" stop-color="#3b6861"/>
    </radialGradient>
    <radialGradient id="radial-gradient-2" cx="-823.499" cy="310.541" r="549.819" gradientTransform="matrix(-1.223, 0, 0, 1, -2934.36, 0)" xlink:href="#radial-gradient"/>
    <radialGradient id="radial-gradient-3" cx="-407.41" cy="105.714" r="202.071" gradientTransform="matrix(-1.626, 0, 0, 1, -2483.447, 0)" xlink:href="#radial-gradient"/>
    <radialGradient id="radial-gradient-4" cx="0.462" cy="-208.433" r="214.355" xlink:href="#radial-gradient"/>
    <radialGradient id="radial-gradient-5" cx="-621.433" cy="-204.681" r="564.253" gradientTransform="matrix(-1.189, 0, 0, 1, -2222.289, 0)" xlink:href="#radial-gradient"/>
    <radialGradient id="radial-gradient-6" cx="-306.609" cy="-79.191" r="209.281" gradientTransform="matrix(-1.622, 0, 0, 1, -2151.145, 0)" xlink:href="#radial-gradient"/>
  </defs>
  <g id="Group_1" data-name="Group 1" transform="translate(0 16.595) rotate(-30)">
    <path id="Path_1" data-name="Path 1" d="M224.252,22.545c.429.719,1.085,2.227-.278,1.945-1-.206-1.844-.867-2.818-1.1-3.538-.843-8.119.115-10.712,2.776a6.9,6.9,0,0,0-1.78,2.947s-.531,2.754.338,3.864.144.966-.145,1.3-.289.628.337.919,1.886,1.449,2.416,1.014.629.193.1.917-2.8,1.353-2.755,2.271,1.305.967,1.547.821.339.194-.241.918-.34.82.144,1.352.2.726-.192,1.016,3.139,3.43,8.455,2.755,5.895-2.173,6.763-2.947,2.56.774-.19,4.493-13.772,9.614-24.5,1.643c-7.083-5.266-9.375-16.427-4.862-24.048a15.774,15.774,0,0,1,8.818-7.347c3.938-1.393,7.992-2.108,12.029-.624a16.427,16.427,0,0,1,3.762,2.025C221.585,20.237,223.557,21.388,224.252,22.545Z" transform="translate(-193.553 -16.615)" fill="#fdc10c"/>
    <path id="Path_2" data-name="Path 2" d="M195.477,92.742l-.005.008a8.011,8.011,0,0,1-1.245,2.192A9.118,9.118,0,0,0,195.477,92.742Z" transform="translate(-162.543 -63.744)" fill="#fcd377"/>
    <path id="Path_3" data-name="Path 3" d="M212.33,16.616a13.567,13.567,0,0,1,4.726.823s3.328,1.26,1.044,1.26q-.23,0-.539-.017c-.69-.041-1.467-.079-2.295-.079a14.5,14.5,0,0,0-10.282,3.557s-1.209,1.015-.776,3.575a1.874,1.874,0,0,1-.48,1.159c-.356.481-.6,1.243-.826,1.243-.114,0-.223-.193-.336-.71-.093-.424-.191-.591-.288-.591-.251,0-.471,1.167-.437,1.8.047.869-.337,2.126.435,2.512,1.311.657-1.538,1.388-1.947,1.663a5.47,5.47,0,0,0-2.014,4.183,6.02,6.02,0,0,0,1.076,3.612c.348.5,1.286,1.056,1.855,1.695.116.237.268.528.459.881a1.068,1.068,0,0,1-.2.72c-1.306,1.932,2.367,6.813,11.017,7.1.3.011.6.015.889.015,7.971,0,10.9-3.732,12.394-5.039.261-.23.874-1.067,1.076-1.067.094,0,.1.185-.064.7a9.119,9.119,0,0,1-1.251,2.2c-1.752,2.365-6.844,5.61-13.077,5.61a18.9,18.9,0,0,1-11.419-3.966c-4.594-3.415-7.172-9.309-7.187-15.108a17.456,17.456,0,0,1,2.325-8.94,15.774,15.774,0,0,1,8.818-7.347A22.035,22.035,0,0,1,212.33,16.616Z" transform="translate(-193.884 -16.616)" fill="#fbb50f"/>
    <path id="Path_4" data-name="Path 4" d="M226.9,82.313a4.424,4.424,0,0,0,1.424.59h0c-.161.14-.027.22.171.22a2.468,2.468,0,0,0,1.146-.264c.07.023.144.045.216.069.054.042.111.088.176.138.278,1.1,2.117,1.2,2.943,1.6a25.606,25.606,0,0,1,2.415,1.709,16.786,16.786,0,0,0,2.568,1.367,11,11,0,0,0,2.315.666c-.12.008-.262.013-.428.013-.151,0-.317,0-.505-.011-4.767-.191-10.168-1.714-11.533-4.188-.068-.129-.137-.251-.2-.365a1.629,1.629,0,0,0-.459-.881A2.764,2.764,0,0,1,226.9,82.313Z" transform="translate(-219.783 -57.288)" fill="#fdd20b"/>
    <path id="Path_5" data-name="Path 5" d="M260.146,84.043a1.629,1.629,0,0,1,.459.881C260.414,84.571,260.262,84.28,260.146,84.043Z" transform="translate(-252.781 -58.359)" fill="#fdcc0d"/>
    <path id="Path_6" data-name="Path 6" d="M201.974,81.015c-.58.725-.34.82.144,1.352s.2.726-.192,1.016,3.139,3.43,8.455,2.755,5.895-2.173,6.763-2.947a.708.708,0,0,1,.58-.187s-.724.138-.771,1.2c-.019.367-.976.986-1.232,1.161a13.234,13.234,0,0,1-2.988,1.47,12.714,12.714,0,0,1-9.289.1,16.788,16.788,0,0,1-2.568-1.367,25.6,25.6,0,0,0-2.415-1.709c-.848-.4-2.763-.5-2.961-1.684-.075-.461.187-.163.84.132a4.208,4.208,0,0,0,2.737.255C201.732,81.981,201.974,81.015,201.974,81.015Z" transform="translate(-185.27 -56.484)" fill="#fdcc0a"/>
    <path id="Path_7" data-name="Path 7" d="M208.865,44.333c-.53.435-1.786-.724-2.416-1.014s-.627-.58-.337-.919,1.015-.192.145-1.3-.338-3.864-.338-3.864a6.9,6.9,0,0,1,1.78-2.947c2.593-2.661,7.174-3.619,10.712-2.776.974.231,1.82.892,2.818,1.1a1.766,1.766,0,0,0,.275.035s1.033-.047-.706-.949-6.57-3.865-13.013-.129a9.781,9.781,0,0,0-3.9,4.122s0,.434-.774.434-1.5-.531-2.561,1.45c0,0-.723,1.064-.82.146s-.8,0-.194.846,1.039-.194,1.593-.653c0,0,.412-.411-.167.265a6.545,6.545,0,0,0-1.183,2.173c-.123.485-.146.049.723-.385s2.393,1.232.919,1.329-1.642-.364-1.642-.364-1.16-.336.965.75,2.752.241,2.875-.337a11.878,11.878,0,0,0,.144-2.827c-.045-.081-.01-.051.052-.022.107.048.3.1.31-.389a3.741,3.741,0,0,0-.338-1.521,6.208,6.208,0,0,1,.748,1.86c.288,1.183-.339,1.812-.606,2.657s.557-.216.992-1.546.46.531.435,1.111-1.281,1.57-1.135,1.086c.056-.186-.211.132-.7.448a2.708,2.708,0,0,1-3.691-.52s-.411-.556-.048.266a2.38,2.38,0,0,0,3.283.676,5.516,5.516,0,0,1,1.065.024c.362.073-.219.725-.385,1.425s-1.6,1.353.264,2.271c0,0,.676.628.507.12s-.119-1.788,1.282-1.521,2.946.1,3.235-.652Z" transform="translate(-190.809 -24.73)" fill="#fdcc0a"/>
    <path id="Path_8" data-name="Path 8" d="M229.427,83.495c.485.533.2.726-.192,1.016-.26.194,1.235,1.664,3.841,2.413,0,0-3.71-.835-5.581-3.154-1.1-1.362-.561-.946.256-.531C228.328,83.531,229.042,83.821,229.427,83.495Z" transform="translate(-212.579 -57.612)" fill="#fde20a"/>
    <path id="Path_9" data-name="Path 9" d="M235.729,80.587c-.131-.356.273-.138.273-.138,1.98.828,3.653.2,4.17-.6s.8-.774.8-.774a2.865,2.865,0,0,1,1.224.419c.166.187.55-.262.8-.6a1.7,1.7,0,0,1-.43.809c-.58.725-.34.82.144,1.352s.2.726-.192,1.016a.062.062,0,0,0-.024.044A7.4,7.4,0,0,1,235.729,80.587Z" transform="translate(-225.867 -55.169)" fill="#faaa13"/>
    <path id="Path_10" data-name="Path 10" d="M254.3,78.1a2.407,2.407,0,0,1-1.242,1.822,3.671,3.671,0,0,1-.689.249c-.13.035-.458.039-.56.126-.161.14-.027.22.171.22C252.415,80.513,254.13,80.439,254.3,78.1Z" transform="translate(-243.271 -54.677)" fill="#faaa13"/>
    <path id="Path_11" data-name="Path 11" d="M233.679,71.658c0-.259-.579-.29-.579-.29-.967-.259-.645-1.288.87-1.321a4.919,4.919,0,0,0,2.867-.9c.229-.165.124.13-.034.461l-.014.021c-.531.725-2.8,1.353-2.755,2.271.032.638.651.856,1.105.88A1.171,1.171,0,0,1,233.679,71.658Z" transform="translate(-218.635 -49.107)" fill="#faaa13"/>
    <path id="Path_12" data-name="Path 12" d="M246.512,58.62a5.916,5.916,0,0,0,2.8,1.014c1.449.049,1.256-1.449,1.256-1.449a1.69,1.69,0,0,1-.139,1.451c.44-.092.656-.626.694-.737-.388,1.15-.831,1.167-1.082,1.054a2.271,2.271,0,0,1-1.068.214,5.252,5.252,0,0,1-2.657-1.449c-.144-.241-.82-.193-.82-.193C246.223,58.233,246.512,58.62,246.512,58.62Zm4.613.278.01-.021A.1.1,0,0,1,251.125,58.9Z" transform="translate(-237.732 -42.35)" fill="#faaa13"/>
    <path id="Path_13" data-name="Path 13" d="M252.015,60.7a4.034,4.034,0,0,1-3.652-1.308S249.821,61.6,252.015,60.7Z" transform="translate(-239.703 -43.097)" fill="#c28011"/>
    <path id="Path_14" data-name="Path 14" d="M237.885,84.746a.571.571,0,0,0,.416-.385c.083-.346-.619-.823-.891-.871-.462-.077-1.662.948-1.1,1.314A2.585,2.585,0,0,0,237.885,84.746Z" transform="translate(-221.35 -58.014)" fill="#fdb610"/>
    <path id="Path_15" data-name="Path 15" d="M239.24,75.625a1.707,1.707,0,0,0,.75,1.257s.265.241-.194.024S239.192,76.3,239.24,75.625Z" transform="translate(-224.276 -53.148)" fill="#fde20a"/>
    <path id="Path_16" data-name="Path 16" d="M237,84.628s.628.363-.072.726S236.036,84.654,237,84.628Z" transform="translate(-220.373 -58.721)" fill="#fdd80a"/>
    <path id="Path_17" data-name="Path 17" d="M241.343,79.561s-.82-.484-1.239.08a3.493,3.493,0,0,1-1.241,1.175s.565-.032,1.112-.853A1.057,1.057,0,0,1,241.343,79.561Z" transform="translate(-225.412 -55.465)" fill="#fdd80a"/>
    <path id="Path_18" data-name="Path 18" d="M239.925,80.922s.482-.838.965-.838a.841.841,0,0,1,.806.983s-.614-.177-.791.129a2.77,2.77,0,0,1-2.4.952,3.593,3.593,0,0,0-.433-.027A2.326,2.326,0,0,0,239.925,80.922Z" transform="translate(-225.491 -55.908)" fill="#fdb610"/>
    <path id="Path_19" data-name="Path 19" d="M244.1,82.381s-.354-.71-.95-.048c-1.086,1.208-3.768,1.244-5.254.144,0,0,1.739,1.305,3.093,1.125a3.791,3.791,0,0,0,2.331-1.076S243.9,82.211,244.1,82.381Z" transform="translate(-227.795 -57.126)" fill="#db8e13"/>
    <path id="Path_20" data-name="Path 20" d="M241.433,82.577a.873.873,0,0,0-.966.257,3.156,3.156,0,0,1-2.576.774,3.358,3.358,0,0,0,2.383-.8S241.079,82,241.433,82.577Z" transform="translate(-225.133 -57.322)" fill="#c28011"/>
    <path id="Path_21" data-name="Path 21" d="M234.927,59.924s.557.483.243.653-.8.676-.6.941,1.138.677,1.862,1.208a1.384,1.384,0,0,0,.578.29c.217,0,.337.1-.07.12a.98.98,0,0,1-.92-.361A3.5,3.5,0,0,0,235,62.145c-.58-.314-.894-.41-.436-1.11S234.493,59.537,234.927,59.924Z" transform="translate(-219.553 -43.364)" fill="#fde20a"/>
    <path id="Path_22" data-name="Path 22" d="M251.308,63.323a2.215,2.215,0,0,1-2.512-.065s0-.257.8.162S250.664,63.226,251.308,63.323Z" transform="translate(-239.161 -45.443)" fill="#fde20a"/>
    <path id="Path_23" data-name="Path 23" d="M248.708,51.078a10.281,10.281,0,0,1,.076,3.287c-.316.99-.872.894-1.646.8s-.142-.048.509-.315a1.718,1.718,0,0,0,1.111-1.981A6.048,6.048,0,0,1,248.708,51.078Z" transform="translate(-235.991 -37.951)" fill="#fde20a"/>
    <path id="Path_24" data-name="Path 24" d="M250.682,49.489l-.435.048s-.485-2.125-2.368-.144-1.788-.1-1.788-.1.048.871.675.533S249.812,46.2,250.682,49.489Z" transform="translate(-237.505 -36.071)" fill="#f89f15"/>
    <path id="Path_25" data-name="Path 25" d="M248.831,49.324s.1.556-.338.265c0,0-.2-2.2-2.172-.651,0,0,1.521-1.692,2.245-.195Z" transform="translate(-235.751 -36.122)" fill="#c28011"/>
    <path id="Path_26" data-name="Path 26" d="M252.1,79.351a1.785,1.785,0,0,1-.039.184c-.053.063-.109.125-.166.186.018-.036.039-.071.056-.107C252.006,79.528,252.057,79.441,252.1,79.351Z" transform="translate(-241.138 -55.454)" fill="#fcc60e"/>
    <path id="Path_27" data-name="Path 27" d="M260.337,59.722a.473.473,0,0,1,.509.478,2.751,2.751,0,0,0,.892,1.81.784.784,0,0,0-.406-.179c-.46,0-.24,1.212.094,3.248a12.709,12.709,0,0,1-.022,3.3,4.372,4.372,0,0,0-1.1-.317c-.165,0-.233.078-.2.269a5.1,5.1,0,0,1-2.344-5.084C258.073,60.933,259.541,59.722,260.337,59.722Z" transform="translate(-252.983 -43.302)" fill="#fdd20b"/>
    <path id="Path_28" data-name="Path 28" d="M258.417,81.608a4.372,4.372,0,0,1,1.1.317c-.012.284.016.467.142.525a.135.135,0,0,0-.022.016,4.424,4.424,0,0,1-1.424-.59C258.184,81.686,258.252,81.608,258.417,81.608Z" transform="translate(-251.1 -56.852)" fill="#fddb0a"/>
    <path id="Path_29" data-name="Path 29" d="M253.954,80.421a4.386,4.386,0,0,1-.513.648,1.9,1.9,0,0,1-.424.289,3.06,3.06,0,0,1-.416.169l-.066-.022A5.482,5.482,0,0,0,253.954,80.421Z" transform="translate(-243.232 -56.117)" fill="#fdd20b"/>
    <path id="Path_30" data-name="Path 30" d="M256.3,83.265l.066.022c-.091.029-.182.057-.272.08C256.16,83.335,256.227,83.3,256.3,83.265Z" transform="translate(-246.992 -57.877)" fill="#fddb0a"/>
    <path id="Path_31" data-name="Path 31" d="M255.552,82.121a1.97,1.97,0,0,1-1.341.706,1.1,1.1,0,0,1-.185-.017c-.048-.008-.1-.016-.144-.027a.135.135,0,0,1,.022-.016.258.258,0,0,0,.109.021,1.094,1.094,0,0,0,.426-.13c.09-.024.181-.051.272-.08a3.057,3.057,0,0,0,.416-.169A1.9,1.9,0,0,0,255.552,82.121Z" transform="translate(-245.343 -57.169)" fill="#fcc60e"/>
    <path id="Path_32" data-name="Path 32" d="M246.012,68.189a3.178,3.178,0,0,0,.278.225c.29,2.365.7,1.264.634,1.844-.066.611-.39,1.578-2.031,1.706-.254.02-.461.031-.63.031-.927,0-.684-.317-.3-1.19.171-.387.177-.533.119-.565a8.467,8.467,0,0,0,1.1-2.04c.052-.132.119-.275.19-.426A2.887,2.887,0,0,0,246.012,68.189Zm-.264-2.271a.734.734,0,0,1-.052.142.594.594,0,0,0-.2-.261.687.687,0,0,0-.4-.109,1.277,1.277,0,0,0-.131.007c.544-.333.913-.556,1.157-.679A4.632,4.632,0,0,0,245.748,65.919Z" transform="translate(-232.811 -46.581)" fill="#fdd20b"/>
    <path id="Path_33" data-name="Path 33" d="M245.726,64.723c.365,0-.383,1.136-.187,3.1.013.146.031.283.043.411a3.174,3.174,0,0,1-.278-.225,2.886,2.886,0,0,1-.649-.414,2.529,2.529,0,0,0,.385-1.572,1.492,1.492,0,0,0-.052-.142.734.734,0,0,0,.052-.142,4.632,4.632,0,0,1,.368-.9A.844.844,0,0,1,245.726,64.723Z" transform="translate(-232.104 -46.398)" fill="#fdd70a"/>
    <path id="Path_34" data-name="Path 34" d="M247.121,65.257a.784.784,0,0,1,.406.179,4.421,4.421,0,0,0,1.717.992,1.554,1.554,0,0,1,.859.669l.784-1.232c.01-.007.023-.014.034-.021a1.276,1.276,0,0,1,.131-.007.687.687,0,0,1,.4.109.594.594,0,0,1,.2.261c-.246.539-1.063,1.061-.333,1.714-.071.151-.138.294-.19.426a8.468,8.468,0,0,1-1.1,2.04.064.064,0,0,0-.032-.007.392.392,0,0,0-.184.087c-.027.053-.055.105-.084.157a4.154,4.154,0,0,0,.062-.478,2,2,0,0,1-.211.741c-.032.048-.059.1-.093.145a5.483,5.483,0,0,1-1.419,1.083c-.333-.114-.627-.222-.883-.315a12.706,12.706,0,0,0,.022-3.3C246.881,66.469,246.661,65.257,247.121,65.257Z" transform="translate(-238.772 -46.729)" fill="#fddb0a"/>
    <path id="Path_35" data-name="Path 35" d="M256.263,82.439c.256.093.551.2.883.315-.069.036-.136.07-.207.1a2.778,2.778,0,0,0-.535.109C256.279,82.906,256.252,82.723,256.263,82.439Z" transform="translate(-247.843 -57.366)" fill="#fddf0a"/>
    <path id="Path_36" data-name="Path 36" d="M247.263,67.755a1.49,1.49,0,0,1,.052.142,2.53,2.53,0,0,1-.385,1.572C246.2,68.816,247.017,68.294,247.263,67.755Z" transform="translate(-234.378 -48.275)" fill="#fddd0a"/>
    <path id="Path_37" data-name="Path 37" d="M251.845,80.3a.258.258,0,0,1-.109-.021,2.777,2.777,0,0,1,.535-.109A1.093,1.093,0,0,1,251.845,80.3Zm2.295-1.723c-.046.09-.1.177-.15.263a2,2,0,0,0,.211-.741A4.151,4.151,0,0,1,254.14,78.574Z" transform="translate(-243.174 -54.677)" fill="#fdd50c"/>
    <path id="Path_38" data-name="Path 38" d="M252.3,61.537a2.555,2.555,0,0,1-2.775-.941A3.347,3.347,0,0,0,252.3,61.537Z" transform="translate(-240.425 -43.843)" fill="#792807"/>
    <path id="Path_39" data-name="Path 39" d="M249.641,49.218l0,.014c.011.055-.018.285,0,.3a.2.2,0,0,1-.039-.081c-.081-.274-.934-1.322-2.32.064a3.464,3.464,0,0,1,.868-.709,1.315,1.315,0,0,1,.817-.16.961.961,0,0,1,.545.334A.76.76,0,0,1,249.641,49.218Z" transform="translate(-236.924 -36.436)" fill="#792807"/>
    <path id="Path_40" data-name="Path 40" d="M240.58,73.522s-.313.411-.627.29S239.591,73.473,240.58,73.522Z" transform="translate(-224.989 -51.841)" fill="#c28011"/>
    <path id="Path_41" data-name="Path 41" d="M245.148,72.2a.906.906,0,0,0,.242.8S244.583,72.62,245.148,72.2Z" transform="translate(-231.777 -51.027)" fill="#faaa13"/>
    <path id="Path_42" data-name="Path 42" d="M240.84,73.512s.388-.061.158.085-.254.228-.388.131S240.527,73.572,240.84,73.512Z" transform="translate(-225.78 -51.832)" fill="#792807"/>
    <path id="Path_43" data-name="Path 43" d="M239.345,82.606a.639.639,0,0,1,.343.1.737.737,0,0,0-.275-.053.535.535,0,0,0-.08,0h-.019c-.066,0-.3.034-.7.427a3.535,3.535,0,0,1-.646.413l.194-.122a4.134,4.134,0,0,0,.651-.556A.851.851,0,0,1,239.345,82.606Z" transform="translate(-223.419 -57.469)" fill="#9c520c"/>
    <path id="Path_44" data-name="Path 44" d="M245.552,85.1a3.579,3.579,0,0,1-2.674.08A4.642,4.642,0,0,0,245.552,85.1Z" transform="translate(-231.151 -59.012)" fill="#792807"/>
    <path id="Path_45" data-name="Path 45" d="M252.637,82.4c-.085.088,0,.165.07.217.1.07.737.419.545.362-.168-.05-.846-.466-1.038-.339-.255.17.313-.313.529-.47a.209.209,0,0,1,.114-.051C252.853,82.253,252.707,82.325,252.637,82.4Z" transform="translate(-242.418 -57.167)" fill="#db8e13"/>
    <path id="Path_46" data-name="Path 46" d="M225.767,59.872a.27.27,0,1,1,.27.27A.271.271,0,0,1,225.767,59.872Z" transform="translate(-205.388 -43.228)" fill="#fff221"/>
    <path id="Path_47" data-name="Path 47" d="M226.134,59.847a.057.057,0,0,1,.057-.059.059.059,0,1,1,0,.118A.057.057,0,0,1,226.134,59.847Z" transform="translate(-205.473 -43.343)" fill="#fffce9"/>
    <path id="Path_48" data-name="Path 48" d="M193.318,65.95a.269.269,0,1,1,.268.27A.27.27,0,0,1,193.318,65.95Z" transform="translate(-160.577 -46.991)" fill="#fff221"/>
    <path id="Path_49" data-name="Path 49" d="M193.685,65.925a.058.058,0,1,1,.058.059A.058.058,0,0,1,193.685,65.925Z" transform="translate(-160.663 -47.106)" fill="#fffce9"/>
    <path id="Path_50" data-name="Path 50" d="M231.181,78.163a.269.269,0,1,1,.268.269A.27.27,0,0,1,231.181,78.163Z" transform="translate(-212.861 -54.551)" fill="#fff221"/>
    <path id="Path_51" data-name="Path 51" d="M231.55,78.136a.06.06,0,0,1,.059-.06.058.058,0,0,1,.058.06.057.057,0,0,1-.058.059A.059.059,0,0,1,231.55,78.136Z" transform="translate(-212.951 -54.665)" fill="#fffce9"/>
    <path id="Path_52" data-name="Path 52" d="M225.945,38.09a.392.392,0,1,1,.393.392A.393.393,0,0,1,225.945,38.09Z" transform="translate(-205.878 -29.667)" fill="#fff221"/>
    <path id="Path_53" data-name="Path 53" d="M226.478,38.052a.085.085,0,0,1,.085-.085.085.085,0,1,1-.085.085Z" transform="translate(-206.002 -29.834)" fill="#fffce9"/>
    <path id="Path_54" data-name="Path 54" d="M263.931,104.518a.391.391,0,1,1,.391.391A.392.392,0,0,1,263.931,104.518Z" transform="translate(-258.332 -70.792)" fill="#fff221"/>
    <path id="Path_55" data-name="Path 55" d="M264.468,104.479a.086.086,0,0,1,.085-.086.086.086,0,1,1-.085.086Z" transform="translate(-258.461 -70.957)" fill="#fffce9"/>
    <path id="Path_56" data-name="Path 56" d="M263.223,26.214s-.441.187-.444.245v0c.1-.011.4-.047.687-.094-.013,0-.243-.153-.243-.153Z" transform="translate(-256.646 -22.558)" fill="#fbcc0a"/>
    <path id="Path_57" data-name="Path 57" d="M262.779,26.709c0,.059.358.153.358.153l.329-.247c-.291.048-.585.083-.687.094Z" transform="translate(-256.646 -22.806)" fill="#ffe50a"/>
    <path id="Path_58" data-name="Path 58" d="M262.78,26.862s-.014.405.069.422l.26-.669-.33.247Z" transform="translate(-256.289 -22.806)" fill="#fbcc0a"/>
    <path id="Path_59" data-name="Path 59" d="M262.931,25.186c-.047.015-.152.391-.152.391s.23.148.243.153l-.083-.545Z" transform="translate(-256.201 -21.921)" fill="#ffe50a"/>
    <path id="Path_60" data-name="Path 60" d="M262.6,25.5c-.067-.113-.189-.31-.244-.31l.083.545.161-.234Z" transform="translate(-255.617 -21.921)" fill="#fbcc0a"/>
    <path id="Path_61" data-name="Path 61" d="M261.192,26.336l.386.159c.056-.068.254-.3.213-.331a4.728,4.728,0,0,1-.6.172Z" transform="translate(-254.372 -22.527)" fill="#fbcc0a"/>
    <path id="Path_62" data-name="Path 62" d="M261.368,26l-.161.234a4.727,4.727,0,0,0,.6-.172c-.068-.065-.393-.057-.437-.062Z" transform="translate(-254.386 -22.425)" fill="#ffe50a"/>
    <path id="Path_63" data-name="Path 63" d="M262.005,27.135h0a1.518,1.518,0,0,0-.084-.361l-.386-.159.47.52Z" transform="translate(-254.714 -22.806)" fill="#ffe50a"/>
    <path id="Path_64" data-name="Path 64" d="M262.669,27.284c.084.017.3-.27.3-.27l-.042-.4-.26.669Z" transform="translate(-256.108 -22.806)" fill="#ffe50a"/>
    <path id="Path_65" data-name="Path 65" d="M261.586,27.014s.384.154.429.121l-.47-.52.042.4Z" transform="translate(-254.723 -22.806)" fill="#fbcc0a"/>
    <path id="Path_66" data-name="Path 66" d="M263.645,27.264a.531.531,0,0,0,0,.072v-.072Z" transform="translate(-257.154 -23.208)" fill="url(#radial-gradient)"/>
    <path id="Path_67" data-name="Path 67" d="M263.39,26.961c-.07.05-.139.1-.156.115h0l.156-.115Z" transform="translate(-256.743 -23.02)" fill="#fcd20a"/>
    <path id="Path_68" data-name="Path 68" d="M263.12,26.66a1.841,1.841,0,0,0-.166.115l-.156.115h0v.072c0,.059.01.132.012.15,0,0,.173-.389.31-.452Z" transform="translate(-256.307 -22.834)" fill="#f9bb09"/>
    <path id="Path_69" data-name="Path 69" d="M262.795,26.658h0Z" transform="translate(-255.979 -22.833)" fill="#fcd20a"/>
    <path id="Path_70" data-name="Path 70" d="M262.687,26.658s.028.209.04.321l-.032-.3a.119.119,0,0,0-.008-.024Z" transform="translate(-255.871 -22.833)" fill="#fcd20a"/>
    <path id="Path_71" data-name="Path 71" d="M262.108,26.721l.032.3a.574.574,0,0,1,.007.062c.01,0,.193.074.213.075a1.939,1.939,0,0,1-.252-.434Z" transform="translate(-255.285 -22.872)" fill="#f9bb09"/>
    <path id="Path_72" data-name="Path 72" d="M261.69,26.885l-.046.056c.006-.008.027-.03.046-.056Z" transform="translate(-254.437 -22.973)" fill="url(#radial-gradient-2)"/>
    <path id="Path_73" data-name="Path 73" d="M261.882,26.527a.87.87,0,0,1-.332.056,1.2,1.2,0,0,1-.183-.014c.085.034.363.15.363.15h0l.046-.056c.044-.053.1-.124.106-.136Z" transform="translate(-254.523 -22.751)" fill="#f9bb09"/>
    <path id="Path_74" data-name="Path 74" d="M261.765,26.633s.35.144.376.152c0,0-.278-.116-.363-.15l-.013,0Z" transform="translate(-254.934 -22.817)" fill="#fcd20a"/>
    <path id="Path_75" data-name="Path 75" d="M262.355,25.561v0c.038.057.075.118.1.165,0,0-.08-.136-.1-.167Z" transform="translate(-255.476 -22.153)" fill="url(#radial-gradient-3)"/>
    <path id="Path_76" data-name="Path 76" d="M262.414,25.568a1.824,1.824,0,0,1-.059.4l.161-.234h0c-.027-.046-.065-.108-.1-.165Z" transform="translate(-255.534 -22.158)" fill="#f9bb09"/>
    <path id="Path_77" data-name="Path 77" d="M263.042,26.214h0c-.026.013-.228.1-.24.11a.455.455,0,0,1,.144-.02,1.177,1.177,0,0,1,.33.058.067.067,0,0,0-.011-.007l-.223-.142Z" transform="translate(-256.465 -22.558)" fill="#f9bb09"/>
    <path id="Path_78" data-name="Path 78" d="M262.832,26.214h0l.223.142c-.041-.03-.186-.12-.223-.142Z" transform="translate(-256.254 -22.558)" fill="#fcd20a"/>
    <path id="Path_79" data-name="Path 79" d="M261.728,26.123l.022-.038c.011,0,.2,0,.224,0A1.535,1.535,0,0,1,261.728,26.123Z" transform="translate(-254.761 -22.477)" fill="#fff"/>
    <path id="Path_80" data-name="Path 80" d="M261.617,27.077a.306.306,0,0,0,.043.006,1.026,1.026,0,0,1,.078.213C261.749,27.319,261.617,27.077,261.617,27.077Z" transform="translate(-254.476 -23.092)" fill="#fff"/>
    <path id="Path_81" data-name="Path 81" d="M262.844,27.535s.02.027.016.04a1.741,1.741,0,0,1-.15.171C262.691,27.765,262.844,27.535,262.844,27.535Z" transform="translate(-256.013 -23.376)" fill="#fff"/>
    <path id="Path_82" data-name="Path 82" d="M263.879,27.019s-.016.03-.031.03-.194-.066-.218-.071Z" transform="translate(-257.382 -23.03)" fill="#fff"/>
    <path id="Path_83" data-name="Path 83" d="M263.155,25.753l-.029-.03a2.175,2.175,0,0,1,.065-.217C263.2,25.48,263.155,25.753,263.155,25.753Z" transform="translate(-256.505 -22.118)" fill="#fff"/>
    <path id="Path_84" data-name="Path 84" d="M265.177,85.025s-.44.186-.443.246v0c.1-.012.395-.046.685-.094-.012,0-.243-.154-.243-.154Z" transform="translate(-259.344 -58.967)" fill="#fbcc0a"/>
    <path id="Path_85" data-name="Path 85" d="M264.734,85.523c0,.059.359.152.359.152l.326-.246c-.29.048-.586.082-.685.094Z" transform="translate(-259.343 -59.217)" fill="#ffe50a"/>
    <path id="Path_86" data-name="Path 86" d="M264.735,85.675s-.016.4.069.422l.258-.668-.326.246Z" transform="translate(-258.986 -59.217)" fill="#fbcc0a"/>
    <path id="Path_87" data-name="Path 87" d="M264.886,84c-.047.016-.152.392-.152.392s.231.149.243.154L264.893,84Z" transform="translate(-258.901 -58.33)" fill="#ffe50a"/>
    <path id="Path_88" data-name="Path 88" d="M264.552,84.307c-.068-.112-.188-.311-.246-.311l.083.546.163-.235Z" transform="translate(-258.314 -58.33)" fill="#fbcc0a"/>
    <path id="Path_89" data-name="Path 89" d="M263.147,85.148c.015,0,.388.159.388.159.056-.068.253-.3.211-.332a4.618,4.618,0,0,1-.6.173Z" transform="translate(-257.071 -58.936)" fill="#fbcc0a"/>
    <path id="Path_90" data-name="Path 90" d="M263.325,84.812l-.163.235a4.617,4.617,0,0,0,.6-.173c-.065-.064-.393-.056-.436-.062Z" transform="translate(-257.086 -58.835)" fill="#ffe50a"/>
    <path id="Path_91" data-name="Path 91" d="M263.956,85.949h0a1.6,1.6,0,0,0-.086-.361s-.373-.155-.388-.159l.474.52Z" transform="translate(-257.407 -59.217)" fill="#ffe50a"/>
    <path id="Path_92" data-name="Path 92" d="M264.621,86.1c.082.017.3-.269.3-.269l-.043-.4-.257.668Z" transform="translate(-258.803 -59.217)" fill="#ffe50a"/>
    <path id="Path_93" data-name="Path 93" d="M263.533,85.828s.384.154.431.121l-.474-.52.043.4Z" transform="translate(-257.414 -59.217)" fill="#fbcc0a"/>
    <path id="Path_94" data-name="Path 94" d="M265.593,86.076a.549.549,0,0,0,0,.073c0-.044,0-.073,0-.073Z" transform="translate(-259.844 -59.618)" fill="url(#radial-gradient-4)"/>
    <path id="Path_95" data-name="Path 95" d="M265.341,85.77c-.07.051-.138.1-.154.117h0l.154-.117Z" transform="translate(-259.438 -59.428)" fill="#fcd20a"/>
    <path id="Path_96" data-name="Path 96" d="M265.071,85.473c-.016.006-.091.059-.167.113l-.154.117h0s0,.029,0,.073c0,.059.008.131.01.15,0,0,.176-.389.313-.452Z" transform="translate(-259.001 -59.244)" fill="#f9bb09"/>
    <path id="Path_97" data-name="Path 97" d="M264.746,85.471h0Z" transform="translate(-258.675 -59.243)" fill="#fcd20a"/>
    <path id="Path_98" data-name="Path 98" d="M264.636,85.471s.028.209.042.32l-.031-.3c0-.008-.006-.016-.011-.024Z" transform="translate(-258.565 -59.243)" fill="#fcd20a"/>
    <path id="Path_99" data-name="Path 99" d="M264.061,85.535l.031.3c0,.032.006.055.006.063s.193.073.213.075a1.96,1.96,0,0,1-.25-.433Z" transform="translate(-257.979 -59.283)" fill="#f9bb09"/>
    <path id="Path_100" data-name="Path 100" d="M263.637,85.695c-.021.024-.038.043-.048.058l.048-.058Z" transform="translate(-257.125 -59.382)" fill="url(#radial-gradient-5)"/>
    <path id="Path_101" data-name="Path 101" d="M263.835,85.341a.885.885,0,0,1-.333.056,1.385,1.385,0,0,1-.183-.013c.085.034.365.15.365.15h0c.01-.014.027-.034.048-.058.041-.053.094-.123.1-.135Z" transform="translate(-257.221 -59.163)" fill="#f9bb09"/>
    <path id="Path_102" data-name="Path 102" d="M263.716,85.447s.347.144.374.152c0,0-.28-.116-.365-.15l-.01,0Z" transform="translate(-257.627 -59.228)" fill="#fcd20a"/>
    <path id="Path_103" data-name="Path 103" d="M264.306,84.374v0c.037.056.073.117.1.163,0,0-.079-.135-.1-.167Z" transform="translate(-258.17 -58.564)" fill="url(#radial-gradient-6)"/>
    <path id="Path_104" data-name="Path 104" d="M264.366,84.383a1.584,1.584,0,0,1-.06.4l.163-.235h0c-.03-.046-.066-.108-.1-.163Z" transform="translate(-258.23 -58.57)" fill="#f9bb09"/>
    <path id="Path_105" data-name="Path 105" d="M265,85.025h0c-.024.015-.227.1-.239.111a.442.442,0,0,1,.143-.02,1.169,1.169,0,0,1,.33.058.041.041,0,0,1-.01-.008c-.06-.035-.224-.141-.224-.141Z" transform="translate(-259.163 -58.967)" fill="#f9bb09"/>
    <path id="Path_106" data-name="Path 106" d="M264.783,85.025h0s.164.106.224.141c-.041-.03-.186-.119-.224-.141Z" transform="translate(-258.95 -58.967)" fill="#fcd20a"/>
    <path id="Path_107" data-name="Path 107" d="M263.674,84.937l.02-.038c.012,0,.2,0,.227,0A1.653,1.653,0,0,1,263.674,84.937Z" transform="translate(-257.45 -58.888)" fill="#fff"/>
    <path id="Path_108" data-name="Path 108" d="M263.568,85.889a.317.317,0,0,0,.041.006.964.964,0,0,1,.08.212C263.7,86.132,263.568,85.889,263.568,85.889Z" transform="translate(-257.17 -59.502)" fill="#fff"/>
    <path id="Path_109" data-name="Path 109" d="M264.8,86.347s.02.029.015.04a2.043,2.043,0,0,1-.151.173C264.641,86.578,264.8,86.347,264.8,86.347Z" transform="translate(-258.706 -59.785)" fill="#fff"/>
    <path id="Path_110" data-name="Path 110" d="M265.83,85.833s-.018.029-.031.029-.194-.065-.215-.069Z" transform="translate(-260.077 -59.442)" fill="#fff"/>
    <path id="Path_111" data-name="Path 111" d="M265.1,84.565l-.03-.03c.007-.022.038-.139.07-.217C265.151,84.293,265.1,84.565,265.1,84.565Z" transform="translate(-259.198 -58.528)" fill="#fff"/>
  </g>
</svg>
